# xmcd
#
# Track frame offsets:
#	150
#	17268
#	38665
#	53461
#	69215
#	87493
#	105093
#	127930
#	151751
#	173665
#	190942
#	211173
#	229848
#	246507
#	263851
#	281975
#	300704
#
# Disc length: 4315 seconds
#
# Revision: 1
# Processed by: cddbd v1.4PL0 Copyright (c) Steve Scherf et al.
# Submitted via: EasyCDDAExtractor 5.0.6
#
DISCID=d210d911
DTITLE=莫文蔚 - i
DYEAR=1900
DGENRE=pop
TTITLE0=I will be fine
TTITLE1=单人房 双人床
TTITLE2=爱
TTITLE3=那可不一定
TTITLE4=女朋友的男朋友
TTITLE5=原罪
TTITLE6=你给我多少时间
TTITLE7=Alive!(我的自由式)
TTITLE8=左案,右转
TTITLE9=如果你李白
TTITLE10=Close to you
TTITLE11=寂寞的恋人啊
TTITLE12=想一个男生
TTITLE13=因为所以
TTITLE14=阴天
TTITLE15=盛夏的果实
TTITLE16=十二楼
EXTD=
EXTT0=
EXTT1=
EXTT2=
EXTT3=
EXTT4=
EXTT5=
EXTT6=
EXTT7=
EXTT8=
EXTT9=
EXTT10=
EXTT11=
EXTT12=
EXTT13=
EXTT14=
EXTT15=
EXTT16=
PLAYORDER=
